<?xml version="1.0" encoding="UTF-8"?> <svg xmlns="http://www.w3.org/2000/svg" xmlns:xlink="http://www.w3.org/1999/xlink" fill="none" height="32" viewBox="0 0 32 32" width="32"><clipPath id="a"><path d="m0 0h32v32h-32z"></path></clipPath><g clip-path="url(#a)" fill="#e29079"><path d="m17.9998 32h-4c-.9333 0-2-.8-2-2.4v-2.8c0-1.3333-.6666-2.5333-1.7333-3.4666-2.4-1.8667-3.6-4.5334-3.6-7.4667.13334-5.0667 4.2667-9.06668 9.2-9.20001 2.5333 0 4.9333.93333 6.6667 2.66666 1.7333 1.73335 2.8 4.13335 2.8 6.66665 0 2.8-1.2 5.4667-3.4667 7.2-1.2.9334-1.8667 2.4-1.8667 3.7334v3.0666c0 1.0667-.9333 2-2 2zm-2-23.99998c-4.2666 0-7.86663 3.59998-7.99996 7.86668 0 2.5333 1.06667 4.9333 3.06666 6.4 1.4667 1.2 2.2667 2.8 2.2667 4.5333v2.8c0 .2667 0 1.0667.6666 1.0667h4c.4 0 .6667-.2667.6667-.6667v-3.0666c0-1.7334.9333-3.6 2.4-4.8 1.8667-1.4667 2.9333-3.7334 2.9333-6.1334 0-2.1333-.8-4.1333-2.4-5.7333-1.4666-1.46668-3.4666-2.26668-5.6-2.26668z"></path><path d="m19.3333 28h-6.6666c-.4 0-.6667-.2667-.6667-.6667 0-.3999.2667-.6666.6667-.6666h6.6666c.4 0 .6667.2667.6667.6666 0 .4-.2667.6667-.6667.6667z"></path><path d="m16.0002 4c-.4 0-.6667-.26667-.6667-.66667v-2.666663c0-.4.2667-.666667.6667-.666667s.6666.266667.6666.666667v2.666663c0 .4-.2666.66667-.6666.66667z"></path><path d="m24.9335 7.73331c-.1333 0-.4 0-.5333-.13334-.2667-.26666-.2667-.66666 0-.93333l1.8667-1.86666c.2666-.26667.6666-.26667.9333 0 .2667.26666.2667.66666 0 .93333l-1.8667 1.86666s-.2666.13334-.4.13334z"></path><path d="m31.3333 16.6667h-2.6666c-.4 0-.6667-.2667-.6667-.6667s.2667-.6667.6667-.6667h2.6666c.4 0 .6667.2667.6667.6667s-.2667.6667-.6667.6667z"></path><path d="m26.8002 27.4666c-.1333 0-.4 0-.5333-.1333l-1.8667-1.8667c-.2667-.2666-.2667-.6666 0-.9333s.6667-.2667.9333 0l1.8667 1.8667c.2667.2666.2667.6666 0 .9333 0 .1333-.1333.1333-.4.1333z"></path><path d="m5.20013 27.4666c-.13333 0-.4 0-.53333-.1333-.26667-.2667-.26667-.6667 0-.9333l1.86666-1.8667c.26667-.2667.66667-.2667.93334 0 .26666.2667.26666.6667 0 .9333l-1.86667 1.8667c-.13333.1333-.26667.1333-.4.1333z"></path><path d="m3.33333 16.6667h-2.666663c-.4 0-.666667-.2667-.666667-.6667s.266667-.6667.666667-.6667h2.666663c.4 0 .66667.2667.66667.6667s-.26667.6667-.66667.6667z"></path><path d="m7.0668 7.73334c-.13334 0-.4 0-.53334-.13334l-1.86666-1.99999c-.26667-.26667-.26667-.66667 0-.93334.26666-.26666.66666-.26666.93333 0l1.86667 1.86667c.26666.26667.26666.66667 0 .93333-.13334.13333-.26667.26667-.4.26667z"></path><path d="m21.3335 16.6667c-.4 0-.6667-.2667-.6667-.6667 0-2.5333-2.1333-4.6667-4.6666-4.6667-.4 0-.6667-.2666-.6667-.6666s.2667-.6667.6667-.6667c3.3333 0 6 2.6667 6 6 0 .4-.2667.6667-.6667.6667z"></path></g></svg> 