<?xml version="1.0" encoding="UTF-8"?> <svg xmlns="http://www.w3.org/2000/svg" xmlns:xlink="http://www.w3.org/1999/xlink" fill="none" height="32" viewBox="0 0 32 32" width="32"><clipPath id="a"><path d="m0 0h32v32h-32z"></path></clipPath><g clip-path="url(#a)" fill="#e29079"><path d="m31.3064 19.572c-.936-.9644-2.4642-1.0295-3.4791-.1485l-4.74 4.1151c-.48.4167-1.0039.7667-1.5657 1.0466-.0823-1.1727-1.062-2.1018-2.2552-2.1018h-1.5546c-1.2518 0-2.4819-.4276-3.4639-1.2038-1.4009-1.1074-3.156-1.7173-4.94175-1.7173-.69834 0-1.38705.091-2.05652.2702v-.9592c0-.3451-.2798-.6249-.62497-.6249h-5.999692c-.34517 0-.624968.2798-.624968.6249v12.4994c0 .3451.279798.625.624968.625h5.999692c.34517 0 .62497-.2799.62497-.625v-.9727h11.24277c3.7182 0 7.3106-1.5544 9.8562-4.2645l2.9856-3.1786c.8984-.9566.8862-2.4433-.0278-3.3849zm-25.3067 11.1757h-4.74976v-11.2494h4.74976zm24.4234-8.6466-2.9856 3.1786c-2.3103 2.4596-5.5707 3.8703-8.9451 3.8703h-11.24277v-8.0147c.66478-.214 1.35493-.3231 2.05658-.3231 1.50569 0 2.98539.5142 4.16659 1.4479 1.2018.95 2.7073 1.4732 4.239 1.4732h1.5547c.5577 0 1.0115.4538 1.0115 1.0115 0 .5578-.4538 1.0115-1.0115 1.0115h-4.4873c-.3451 0-.6249.2799-.6249.625s.2798.625.6249.625h4.4872c.7216 0 1.3648-.3401 1.7792-.868 1.0543-.3659 2.016-.9222 2.8611-1.6558l4.74-4.1152c.5142-.4464 1.2885-.4133 1.7628.0753.4479.4614.4538 1.1899.0136 1.6585z"></path><path d="m15.5968 19.3974c.4786.4786 1.1149.7422 1.7918.7422.6768 0 1.3131-.2636 1.7917-.7422l5.5787-5.5786c.244-.2441.244-.6398 0-.8839-.2441-.244-.6398-.244-.8839 0l-5.5787 5.5786c-.2424.2426-.5649.3761-.9078.3761-.343 0-.6655-.1335-.908-.3761l-7.56724-7.5673c-2.21476-2.21475-2.21476-5.81851 0-8.03327 2.21484-2.214698 5.81854-2.214698 8.03334 0 .2441.24399.6397.24399.8838 0 2.2149-2.214698 5.8186-2.214761 8.0334.00006.7706.77065 1.3004 1.73785 1.5321 2.79711.2257 1.03239.1612 2.10402-.1868 3.09916-.114.32586.0578.68228.3836.79621s.6823-.05781.7963-.38367c.4244-1.21363.5032-2.52031.2279-3.77881-.2828-1.29325-.9292-2.47381-1.8693-3.41395-2.5596-2.559309-6.6391-2.694802-9.3591-.40554-2.7201-2.289262-6.7996-2.153831-9.35913.4056-2.70205 2.70211-2.70205 7.09883 0 9.8009z"></path><path d="m26.3056 12.0132c.3452 0 .625-.2798.625-.6249 0-.3452-.2798-.625-.625-.625-.3451 0-.6249.2798-.6249.625 0 .3451.2798.6249.6249.6249z"></path></g></svg> 