<?xml version="1.0" encoding="UTF-8"?> <svg xmlns="http://www.w3.org/2000/svg" fill="none" height="32" viewBox="0 0 32 32" width="32"><g fill="#e29079"><path d="m31.4526 23.1445-1.5586-1.5585c-.0001-.0002-.0002-.0002-.0003-.0003-.0001-.0002-.0002-.0002-.0003-.0004l-2.4346-2.4346c-.0002-.0001-.0002-.0002-.0004-.0003-.0001-.0001-.0001-.0002-.0003-.0003l-4.4863-4.4863 6.8263-6.82624c.4353-.43538.6751-1.01419.6751-1.62987 0-.61569-.2398-1.1945-.6751-1.62988l-2.3759-2.3758c-.4354-.43538-1.0142-.67513-1.6299-.67513s-1.1945.23975-1.6298.67513l-6.8262 6.82617-4.4893-4.48924-2.4359-2.43593c-.0001-.00007-.0001-.00013-.0002-.00019 0-.00006-.0001-.00013-.0002-.00019l-1.55522-1.555247c-.72868-.728686-1.91431-.728561-2.64287 0l-5.665236 5.665237c-.352999.353-.547374.82231-.547374 1.3215s.194375.9685.547374 1.32144l8.480736 8.48084-3.29081 3.2908c-.0525.0525-.09512.1138-.12612.1813l-4.02743 8.7791c-.109.2375-.05863.5178.12612.7025.11981.1199.27975.1832.44213.1832.08806 0 .17687-.0187.26043-.057l8.77917-4.0274c.0674-.0309.1289-.0737.1813-.1261l3.2908-3.2908 2.687 2.687c.1221.122.282.183.442.183.1599 0 .3198-.061.4419-.183.2441-.2441.2441-.6398 0-.884l-2.687-2.687 6.5403-6.5403 1.6094 1.6094-.5975.5975c-.244.2441-.244.6398 0 .8839.1221.1221.282.1831.442.1831.1599 0 .3198-.061.4419-.1831l.5975-.5975 1.5514 1.5514-1.7855 1.7854c-.244.2441-.244.6399 0 .8839.1221.1221.282.1831.442.1831.1599 0 .3199-.0611.4419-.1831l1.7854-1.7854 1.5514 1.5514-.5975.5975c-.244.244-.244.6398 0 .8839.1221.1221.282.1831.442.1831.1599 0 .3198-.061.4419-.1831l.5975-.5975 1.1169 1.1169c.1169.1169.1812.2723.1812.4375 0 .1653-.0643.3207-.1812.4376l-5.6651 5.6652c-.2412.2412-.6339.2413-.8752 0l-2.2529-2.253c-.2441-.244-.6398-.244-.8839 0-.2441.2441-.2441.6398 0 .884l2.253 2.2529c.3643.3643.8428.5464 1.3214.5464s.9571-.1821 1.3215-.5465l5.6652-5.6652c.353-.3529.5474-.8223.5474-1.3215s-.1944-.9684-.5474-1.3214zm-6.4063-20.05862c.1993-.19925.4642-.309.746-.309s.5467.10975.746.309l2.3759 2.37587c.4114.41131.4114 1.08062 0 1.49193l-1.8247 1.82469-3.8678-3.86781zm-23.61512 4.88574c-.11687-.11688-.18118-.27225-.18118-.4375s.06431-.32069.18125-.43756l5.66524-5.66524c.24112-.24119.63387-.24131.87512 0l1.11331 1.11331-.59756.5975c-.24406.24406-.24406.63981 0 .88387.12206.12206.282.18306.44194.18306.15993 0 .31987-.06106.44193-.18306l.59756-.5975 1.55221 1.55231-1.78539 1.78544c-.24407.24406-.24407.63981 0 .88387.12206.12206.28199.18306.44189.18306.16 0 .3199-.06106.442-.18306l1.7854-1.78543 1.5513 1.55137-.5975.5975c-.244.24406-.244.63981 0 .88393.1221.12207.282.18307.442.18307.1599 0 .3198-.061.4419-.18307l.5975-.5975 1.6121 1.61206-6.54022 6.54045zm1.991 20.60618.85594-1.8657 1.00981 1.0098zm3.07762-1.4118-1.66575-1.6658 1.53863-3.3538 3.48093 3.481zm4.4311-2.2291-3.86773-3.8678 15.27463-15.27466 2.0775 2.07749-5.1511 5.15117c-.2441.2441-.2441.6398 0 .8839.122.122.282.183.4419.183s.3199-.061.4419-.183l5.1511-5.15113.9064.90643z"></path><path d="m20.1479 26.6881c-.1162-.1162-.2775-.1825-.4418-.1825-.165 0-.3257.0663-.4419.1825-.1162.1169-.1831.2775-.1831.4425 0 .1644.0668.3256.1831.4419.1162.1162.2775.1831.4419.1831.1643 0 .3256-.0669.4418-.1831.1162-.1163.1832-.2775.1832-.4419 0-.165-.0669-.3256-.1832-.4425z"></path><path d="m18.477 14.6944c-.1163-.1162-.2775-.1831-.4418-.1831-.165 0-.3257.0669-.4419.1831-.1168.1163-.1831.2775-.1831.4419s.0663.3256.1831.4419c.1162.1162.2769.1831.4419.1831.1643 0 .3256-.0669.4418-.1831.1163-.1163.1832-.2775.1832-.4419s-.0669-.3256-.1832-.4419z"></path></g></svg> 