<?xml version="1.0" encoding="UTF-8"?> <svg xmlns="http://www.w3.org/2000/svg" xmlns:xlink="http://www.w3.org/1999/xlink" fill="none" height="32" viewBox="0 0 32 32" width="32"><clipPath id="a"><path d="m0 0h32v32h-32z"></path></clipPath><g clip-path="url(#a)" fill="#e29079"><path d="m11.3098 17.8491c-.702.4449-1.50089.7142-2.32904.785-.25266-.9232-1.09026-1.5645-2.04746-1.5674h-2.66667c-1.1782 0-2.13333.9551-2.13333 2.1333v10.6667c0 1.1782.95513 2.1333 2.13333 2.1333h2.66667c.96556-.0038 1.80819-.6557 2.0544-1.5893.45285.0238.89671.1357 1.3067.3296.2058.0976.4026.2133.6.3274.2944.1796.6011.3382.9178.4747.8258.3151 1.704.4704 2.5878.4576h9.6c.7886-.0004 1.5127-.4359 1.8828-1.1323.3701-.6965.3257-1.5403-.1154-2.1941.6253-.2152 1.1146-.7093 1.3237-1.3366.2091-.6272.1141-1.3161-.257-1.8634.784-.2683 1.3396-.9691 1.4222-1.7936s-.323-1.6215-1.0382-2.04c.3306-.3814.5134-.8687.5152-1.3733 0-1.1783-.9551-2.1334-2.1333-2.1334h-6.7371c.8341-1.5882 2.3499-5.1386.8747-7.7211-.6491-1.13435-2.0054-2.02182-3.4459-1.28795-1.5029.76373-1.1664 2.27255-1.0043 2.99675.4134 1.8582-.9248 3.7857-3.9776 5.7281zm-4.3765 13.0842h-2.66667c-.5891 0-1.06666-.4775-1.06666-1.0666v-10.6667c0-.5891.47756-1.0667 1.06666-1.0667h2.66667c.5891 0 1.06667.4776 1.06667 1.0667v10.6667c0 .5891-.47757 1.0666-1.06667 1.0666zm9.3952-19.0443c-.2411-1.0789-.1328-1.5194.4469-1.8133.9408-.47999 1.7232.32 2.0363.8667 1.5941 2.7915-1.2859 7.3925-1.3152 7.4389-.104.1642-.1104.372-.0168.5423.0937.1703.2726.2762.4669.2764h7.6534c.5891 0 1.0666.4776 1.0666 1.0667s-.4775 1.0666-1.0666 1.0666h-3.2c-.2946 0-.5334.2388-.5334.5334 0 .2945.2388.5333.5334.5333h3.7333c.5891 0 1.0667.4776 1.0667 1.0667s-.4776 1.0666-1.0667 1.0666h-3.7333c-.2946 0-.5334.2388-.5334.5334 0 .2945.2388.5333.5334.5333h2.6666c.5891 0 1.0667.4776 1.0667 1.0667s-.4776 1.0666-1.0667 1.0666h-2.6666c-.2946 0-.5334.2388-.5334.5334 0 .2945.2388.5333.5334.5333h1.6c.5891 0 1.0666.4776 1.0666 1.0667s-.4775 1.0666-1.0666 1.0666h-9.6c-.7464.0131-1.4884-.1158-2.1867-.3797-.2703-.1179-.5321-.2544-.7835-.4085-.2218-.1291-.4448-.2571-.6757-.3675-.5299-.2492-1.1028-.3941-1.68747-.4267v-9.6437c1.00207-.0888 1.96787-.4181 2.81547-.96 3.472-2.2069 4.968-4.5147 4.4464-6.8582z"></path><path d="m22.4054.517853v.0112.004267c0 .196267-.0486 4.8-4.2715 4.8-.2945 0-.5333.23878-.5333.53334 0 .29455.2388.53333.5333.53333 4.2064 0 4.2709 4.60481 4.2715 4.80001-.004.2945.2316.5366.5261.5405.2946.004.5366-.2316.5405-.5261v-.0112-.0032c0-.1963.0486-4.80001 4.272-4.80001.2946 0 .5334-.23878.5334-.53333 0-.29456-.2388-.53334-.5334-.53334-4.2069 0-4.2709-4.6048-4.272-4.8.004-.294552-.2315-.53655712-.5261-.54053357-.2945-.00397643-.5365.23158157-.5405.52613357zm2.9066 5.348807c-1.0921.57611-1.9362 1.53122-2.3738 2.68586-.4373-1.15479-1.2816-2.10998-2.3739-2.68586 1.0923-.57588 1.9366-1.53107 2.3739-2.68587.4376 1.15464 1.2817 2.10975 2.3738 2.68587z"></path><path d="m9.06647 6.93331v-.0032c-.00088-.29455-.24038-.53261-.53493-.53173s-.53262.24038-.53174.53493c0 .13067-.0448 3.19999-2.66666 3.19999-.29455 0-.53334.2388-.53334.5333 0 .2946.23879.5334.53334.5334 2.62186 0 2.66666 3.0704 2.66666 3.2v.0032c.00089.2945.24039.5326.53494.5317s.53262-.2404.53173-.5349c0-.1307.0448-3.2 2.66663-3.2.2946 0 .5334-.2388.5334-.5334 0-.2945-.2388-.5333-.5334-.5333-2.62183 0-2.66663-3.07039-2.66663-3.19999zm.7168 3.73329c-.54004.3603-.97213.8604-1.25013 1.447-.27801-.5866-.71009-1.0867-1.25014-1.447.54015-.36.97227-.86018 1.25014-1.44688.27787.5867.70998 1.08688 1.25013 1.44688z"></path><path d="m27.1998 11.2c-.2945 0-.5333.2388-.5333.5333v1.0667c0 .2946.2388.5333.5333.5333.2946 0 .5334-.2387.5334-.5333v-1.0667c0-.2945-.2388-.5333-.5334-.5333z"></path><path d="m27.1998 16.5333c.2946 0 .5334-.2388.5334-.5333v-1.0667c0-.2946-.2388-.5333-.5334-.5333-.2945 0-.5333.2387-.5333.5333v1.0667c0 .2945.2388.5333.5333.5333z"></path><path d="m28.2667 14.4h1.0667c.2946 0 .5333-.2388.5333-.5334 0-.2945-.2387-.5333-.5333-.5333h-1.0667c-.2945 0-.5333.2388-.5333.5333 0 .2946.2388.5334.5333.5334z"></path><path d="m26.1332 14.4c.2946 0 .5333-.2388.5333-.5334 0-.2945-.2387-.5333-.5333-.5333h-1.0667c-.2945 0-.5333.2388-.5333.5333 0 .2946.2388.5334.5333.5334z"></path><path d="m13.7561 4.91038.8.8c.2093.20212.5419.19923.7476-.0065.2058-.20572.2086-.53837.0065-.74764l-.8-.8c-.1339-.13864-.3322-.19425-.5186-.14544-.1865.04881-.3321.19444-.3809.38091-.0489.18647.0068.38476.1454.51867z"></path><path d="m12.1563 3.31041c.2092.20212.5419.19923.7476-.00649.2057-.20573.2086-.53837.0065-.74764l-.8-.8c-.2093-.20212-.5419-.19923-.7476.0065-.2058.20572-.2087.53836-.0065.74763z"></path><path d="m11.3563 5.71037c.2083.20821.5459.20821.7542 0l.8-.8c.1386-.1339.1942-.3322.1454-.51867-.0488-.18646-.1944-.33209-.3809-.3809-.1865-.0488-.3847.0068-.5187.14544l-.8.8c-.2082.20827-.2082.54587 0 .75413z"></path><path d="m14.1333 3.46668c.1415-.00003.2771-.05624.3771-.15627l.8-.8c.1386-.13391.1942-.3322.1454-.51867s-.1944-.33209-.3809-.3809c-.1864-.04881-.3847.0068-.5186.14544l-.8.8c-.1525.15253-.1981.38188-.1156.58115.0825.19926.277.3292.4926.32925z"></path></g></svg> 