<?xml version="1.0" encoding="UTF-8"?> <svg xmlns="http://www.w3.org/2000/svg" fill="none" height="32" viewBox="0 0 32 32" width="32"><g fill="#e29079"><path d="m29.9269 6.32685-5.7143-2.28572c-.1364-.05468-.2887-.05468-.4251 0l-5.7143 2.28572c-.1059.04245-.1967.11565-.2607.21016-.0639.09451-.0981.20601-.0981.32012v5.90627c.0029 1.0853.2853 2.1515.82 3.0959.5346.9444 1.3035 1.7352 2.2325 2.2961l2.9395 1.7635c.0887.0531.1902.0812.2937.0812.1034 0 .2049-.0281.2937-.0812l2.5634-1.5383v6.4c-.0003.2484-.0991.4866-.2748.6623s-.4139.2745-.6623.2748h-22.12574c-.24846-.0003-.48665-.0991-.66233-.2748s-.27451-.4139-.27482-.6623v-12.7806h13.14289c.1515 0 .2969-.0602.404-.1674.1072-.1071.1674-.2525.1674-.404 0-.1516-.0602-.2969-.1674-.4041-.1071-.1072-.2525-.1674-.404-.1674h-13.14289v-1.34854c.00031-.24845.09914-.48664.27482-.66232.17568-.17569.41387-.27452.66233-.27482h12.20574c.1515 0 .2969-.0602.404-.16737.1072-.10716.1674-.25251.1674-.40406s-.0602-.2969-.1674-.40406c-.1071-.10716-.2525-.16737-.404-.16737h-12.20574c-.55156.00031-1.08044.21955-1.47045.60956s-.60925.91889-.60955 1.47044v15.26854c.0003.5516.21954 1.0805.60955 1.4705s.91889.6092 1.47045.6095h22.12574c.5515-.0003 1.0804-.2195 1.4704-.6095s.6093-.9189.6096-1.4705v-7.1771c.7118-.5902 1.2854-1.3294 1.6804-2.1655.3949-.8361.6016-1.7487.6053-2.6734v-5.90397c0-.11411-.0342-.22561-.0982-.32012-.0639-.09451-.1547-.16771-.2607-.21016zm-.784 6.43655c-.0023.888-.2334 1.7604-.671 2.5331s-1.0669 1.4196-1.8273 1.8784l-2.6445 1.5874-2.6446-1.5874c-.7603-.4588-1.3896-1.1057-1.8272-1.8784s-.6687-1.6451-.6711-2.5331v-5.51998l5.1429-2.05714 5.1428 2.05714z"></path><path d="m22.1189 11.1223c-.0531-.0532-.1161-.0953-.1854-.1241-.0694-.0288-.1437-.0436-.2188-.0437-.0751 0-.1494.0147-.2188.0434s-.1324.0707-.1856.1238c-.0531.053-.0953.116-.124.1854-.0288.0693-.0437.1437-.0437.2187-.0001.0751.0147.1495.0433.2189.0287.0694.0708.1324.1239.1856l1.5245 1.5234c.1072.1071.2525.1673.404.1673s.2969-.0602.404-.1673l3.048-3.048c.1072-.1073.1673-.2528.1672-.4044-.0001-.15166-.0605-.29705-.1678-.40419-.1073-.10715-.2527-.16729-.4044-.16718-.1516.00011-.297.06045-.4041.16775l-2.6435 2.64452z"></path><path d="m5.7145 22.2857c-.15156 0-.2969.0602-.40407.1674-.10716.1071-.16736.2525-.16736.404 0 .1516.0602.2969.16736.4041.10717.1072.25251.1674.40407.1674h4.5714c.1516 0 .2969-.0602.4041-.1674.1071-.1072.1674-.2525.1674-.4041 0-.1515-.0603-.2969-.1674-.404-.1072-.1072-.2525-.1674-.4041-.1674z"></path></g></svg> 